<svg width="171" height="36" viewBox="0 0 81 16" fill="none" xmlns="http://www.w3.org/2000/svg">
<path d="M20.416 2.712L23.696 10.84L26.96 2.712H29.184L24.848 13H22.544L18.176 2.712H20.416ZM31.723 5.8V13H29.675V5.8H31.723ZM29.451 3.8C29.451 3.448 29.5683 3.14933 29.803 2.904C30.0483 2.65867 30.3417 2.536 30.683 2.536C31.035 2.536 31.3337 2.65867 31.579 2.904C31.8243 3.14933 31.947 3.448 31.947 3.8C31.947 4.14133 31.8243 4.43467 31.579 4.68C31.3337 4.91467 31.035 5.032 30.683 5.032C30.3523 5.032 30.0643 4.90933 29.819 4.664C29.5737 4.41867 29.451 4.13067 29.451 3.8ZM35.0116 5.8V6.808C35.5023 6.04 36.2276 5.65067 37.1876 5.64C37.2303 5.64 37.2676 5.64 37.2996 5.64C38.473 5.64 39.2996 5.94933 39.7796 6.568C40.2596 7.18667 40.4996 8.072 40.4996 9.224V13H38.4356V9.224C38.4356 7.93333 37.9556 7.28267 36.9956 7.272C36.9743 7.272 36.9583 7.272 36.9476 7.272C36.3076 7.272 35.8383 7.48533 35.5396 7.912C35.241 8.328 35.0916 8.92533 35.0916 9.704V13H33.0276V5.8H35.0116ZM43.7855 5.8V13H41.7375V5.8H43.7855ZM41.5135 3.8C41.5135 3.448 41.6308 3.14933 41.8655 2.904C42.1108 2.65867 42.4042 2.536 42.7455 2.536C43.0975 2.536 43.3962 2.65867 43.6415 2.904C43.8868 3.14933 44.0095 3.448 44.0095 3.8C44.0095 4.14133 43.8868 4.43467 43.6415 4.68C43.3962 4.91467 43.0975 5.032 42.7455 5.032C42.4148 5.032 42.1268 4.90933 41.8815 4.664C41.6362 4.41867 41.5135 4.13067 41.5135 3.8ZM44.7876 9.416C44.7876 8.296 45.1343 7.38933 45.8276 6.696C46.521 6.00267 47.4116 5.656 48.4996 5.656C48.617 5.656 48.7343 5.66133 48.8516 5.672C49.7263 5.71467 50.3983 6.072 50.8676 6.744V5.8H52.8836V13.672C52.8836 14.6 52.697 15.208 52.3236 15.496C51.961 15.784 51.2836 15.928 50.2916 15.928H45.4756V14.232H50.2916C50.4943 14.232 50.633 14.1893 50.7076 14.104C50.7823 14.0293 50.8196 13.8853 50.8196 13.672V12.088C50.3716 12.7173 49.7263 13.064 48.8836 13.128C48.7343 13.1387 48.585 13.144 48.4356 13.144C47.3796 13.144 46.505 12.8133 45.8116 12.152C45.129 11.48 44.7876 10.568 44.7876 9.416ZM46.8836 9.416C46.8836 10.088 47.0703 10.6053 47.4436 10.968C47.8276 11.3307 48.3076 11.512 48.8836 11.512C49.481 11.512 49.961 11.3307 50.3236 10.968C50.6863 10.6053 50.8676 10.0827 50.8676 9.4C50.8676 8.664 50.6863 8.13067 50.3236 7.8C49.9716 7.45867 49.4916 7.288 48.8836 7.288C48.297 7.288 47.817 7.47467 47.4436 7.848C47.0703 8.21067 46.8836 8.73333 46.8836 9.416ZM53.9651 5.8H55.9811V6.872C56.4078 6.15733 57.0531 5.8 57.9171 5.8H58.7651V7.528H57.9651C57.1225 7.528 56.5891 7.736 56.3651 8.152C56.1411 8.55733 56.0291 9.44267 56.0291 10.808V13H53.9651V5.8ZM59.0224 11.016C59.0224 9.43733 60.7344 8.56267 64.1584 8.392H64.3024V8.28C64.3024 7.53333 63.8224 7.16 62.8624 7.16C62.457 7.16 62.137 7.224 61.9024 7.352C61.6784 7.48 61.5504 7.608 61.5184 7.736L61.4704 7.928H59.3744C59.3744 7.864 59.385 7.784 59.4064 7.688C59.4277 7.58133 59.5077 7.4 59.6464 7.144C59.785 6.87733 59.9664 6.64267 60.1904 6.44C60.4144 6.23733 60.761 6.056 61.2304 5.896C61.6997 5.72533 62.249 5.64 62.8784 5.64C64.009 5.64 64.8624 5.87467 65.4384 6.344C66.025 6.80267 66.3184 7.44267 66.3184 8.264L66.3344 10.36V10.76C66.3344 10.952 66.361 11.0853 66.4144 11.16C66.4784 11.2347 66.5904 11.272 66.7504 11.272H66.9584V13H66.7344C66.0837 13 65.5877 12.9413 65.2464 12.824C64.905 12.696 64.6597 12.4667 64.5104 12.136C63.945 12.8187 63.0544 13.16 61.8384 13.16C60.8997 13.16 60.1957 12.9573 59.7264 12.552C59.257 12.1467 59.0224 11.6347 59.0224 11.016ZM61.1344 10.968C61.1344 11.1813 61.2357 11.3467 61.4384 11.464C61.641 11.5813 61.897 11.6453 62.2064 11.656C62.2277 11.656 62.249 11.656 62.2704 11.656C62.761 11.656 63.2197 11.5173 63.6464 11.24C64.0837 10.9627 64.3024 10.5733 64.3024 10.072V9.656C63.8757 9.688 63.529 9.72 63.2624 9.752C63.0064 9.784 62.6864 9.84267 62.3024 9.928C61.9184 10.0133 61.625 10.1467 61.4224 10.328C61.2304 10.4987 61.1344 10.712 61.1344 10.968ZM69.7616 5.8V6.824C70.2203 6.06667 70.935 5.672 71.9056 5.64C71.9483 5.64 71.9963 5.64 72.0496 5.64C73.3403 5.64 74.2096 6.08267 74.6576 6.968C75.2123 6.11467 76.0336 5.672 77.1216 5.64C77.1856 5.64 77.2443 5.64 77.2976 5.64C78.3643 5.64 79.127 5.93333 79.5856 6.52C80.0443 7.096 80.2736 7.95467 80.2736 9.096V13H78.2096V9.096C78.2096 8.49867 78.087 8.04533 77.8416 7.736C77.607 7.42667 77.2763 7.272 76.8496 7.272C76.199 7.272 75.735 7.46933 75.4576 7.864C75.191 8.25867 75.0576 8.872 75.0576 9.704V13H72.9936V9.096C72.9936 8.49867 72.871 8.04533 72.6256 7.736C72.391 7.42667 72.0603 7.272 71.6336 7.272C70.983 7.272 70.519 7.46933 70.2416 7.864C69.975 8.25867 69.8416 8.872 69.8416 9.704V13H67.7776V5.8H69.7616Z" fill="white"/>
<path fill-rule="evenodd" clip-rule="evenodd" d="M13.9166 7.5C13.9166 11.0438 11.0438 13.9166 7.5 13.9166C3.95617 13.9166 1.08333 11.0438 1.08333 7.5C1.08333 3.95615 3.95617 1.08333 7.5 1.08333C11.0438 1.08333 13.9166 3.95615 13.9166 7.5ZM15 7.5C15 11.6421 11.6421 15 7.5 15C3.35786 15 0 11.6421 0 7.5C0 3.35786 3.35786 0 7.5 0C11.6421 0 15 3.35786 15 7.5ZM11.6379 4.13795C11.6379 4.56645 11.2906 4.9138 10.8621 4.9138C10.4336 4.9138 10.0863 4.56645 10.0863 4.13795C10.0863 3.70945 10.4336 3.36209 10.8621 3.36209C11.2906 3.36209 11.6379 3.70945 11.6379 4.13795ZM5.24395 8.1045C5.5778 9.35045 6.8585 10.0898 8.10445 9.756C9.3504 9.42215 10.0898 8.14145 9.75595 6.8955C9.4221 5.64955 8.1414 4.91015 6.89545 5.244C5.6495 5.57785 4.91007 6.85855 5.24395 8.1045ZM4.19752 8.3849C4.68622 10.2088 6.56095 11.2912 8.3848 10.8025C10.2087 10.3137 11.2911 8.439 10.8024 6.6151C10.3137 4.79125 8.43895 3.70885 6.61505 4.1976C4.79118 4.6863 3.70881 6.561 4.19752 8.3849Z" fill="url(#paint0_linear_0_1)"/>
<defs>
<linearGradient id="paint0_linear_0_1" x1="7.5" y1="0" x2="7.5" y2="15" gradientUnits="userSpaceOnUse">
<stop stop-color="#877EFF"/>
<stop offset="0.461458" stop-color="#685DFF"/>
<stop offset="1" stop-color="#3121FF"/>
</linearGradient>
</defs>
</svg>
